<svg id="Capa_1" enable-background="new 0 0 512.092 512.092" height="512" viewBox="0 0 512.092 512.092" width="512" xmlns="http://www.w3.org/2000/svg"><g><path d="m426.108 85.984c14.621 14.621 14.621 38.412 0 53.033l-74.245 74.245c-.002.002-50.563 8.136-50.563 8.136l-8.132 50.558c41.815 19.97 93.409 12.647 128.043-21.987l57.929-57.92c43.934-43.934 43.934-115.165 0-159.099l-47.73 5.303z" fill="#83a3ab"/><path d="m373.075 85.984c14.621-14.621 38.412-14.621 53.033 0l53.033-53.033c-43.934-43.934-115.165-43.934-159.099 0l-57.929 57.92c-34.637 34.637-41.959 86.238-21.98 128.056l50.561-8.135 8.135-50.561z" fill="#93b7c0"/><path d="m85.984 426.108c14.621 14.621 38.412 14.621 53.033 0l74.245-74.245c.002-.002 8.136-50.563 8.136-50.563l50.558-8.132c19.97 41.815 12.647 93.409-21.987 128.043l-57.92 57.929c-43.934 43.934-115.165 43.934-159.099 0l5.303-47.73z" fill="#83a3ab"/><path d="m85.984 373.075c-14.621 14.621-14.621 38.412 0 53.033l-53.033 53.033c-43.934-43.934-43.934-115.165 0-159.099l57.92-57.929c34.637-34.637 86.238-41.959 128.056-21.98l-8.135 50.561-50.561 8.135z" fill="#93b7c0"/><path d="m351.863 213.261c14.62-14.622 14.619-38.411-.002-53.031l-117.029 74.603-74.602 117.029c14.621 14.621 38.412 14.622 53.033 0z" fill="#93b7c0"/><path d="m298.829 160.23-138.599 138.599c-14.621 14.621-14.621 38.412 0 53.033l191.632-191.632c-14.622-14.622-38.412-14.622-53.033 0z" fill="#acd5df"/></g></svg>