<svg id="Capa_1" enable-background="new 0 0 512 512" height="512" viewBox="0 0 512 512" width="512" xmlns="http://www.w3.org/2000/svg"><g><path d="m482 121v-30h-183.58c-4.527-12.764-14.656-22.893-27.42-27.42v-63.58h-30v63.58c-12.764 4.527-22.893 14.656-27.42 27.42h-183.58v30h37.5l-67.5 162v3c0 41.355 33.645 75 75 75h30c41.355 0 75-33.645 75-75v-3l-67.5-162h101.08c4.527 12.764 14.656 22.893 27.42 27.42v215.09c-29.767 6.067-53.159 29.826-58.72 59.771-34.822 6.466-61.28 37.051-61.28 73.719v15h270.001v-15c0-36.668-26.458-67.253-61.28-73.72-5.562-29.946-28.954-53.705-58.721-59.771v-215.089c12.764-4.527 22.893-14.656 27.42-27.42h101.08l-67.5 162v3c0 41.355 33.645 75 75 75h30c41.355 0 75-33.645 75-75v-3l-67.5-162zm-392 24 52.5 126h-105zm15 186h-30c-19.554 0-36.228-12.542-42.42-30.01h114.84c-6.192 17.468-22.866 30.01-42.42 30.01zm317-186 52.5 126h-105zm15 186h-30c-19.554 0-36.228-12.542-42.42-30.01h114.84c-6.192 17.468-22.866 30.01-42.42 30.01zm-78.57 151h-204.86c6.191-17.461 22.874-30 42.43-30h120.001c19.556 0 36.238 12.539 42.429 30zm-60.01-60h-84.84c6.192-17.459 22.866-30 42.421-30 19.554 0 36.227 12.541 42.419 30zm-42.42-301c-8.271 0-15-6.729-15-15s6.729-15 15-15 15 6.729 15 15-6.729 15-15 15z"/></g></svg>