<svg height="512" viewBox="0 0 60 60" width="512" xmlns="http://www.w3.org/2000/svg"><g id="Page-1" fill="none" fill-rule="evenodd"><g id="015---Retirement-Bank" fill="rgb(0,0,0)" fill-rule="nonzero"><path id="Shape" d="m59.928 11.641c-.0303467-.0657359-.0675532-.1280819-.111-.186-.0223965-.0445504-.0481369-.0873396-.077-.128l-9.405-10.345c-.5689771-.62496053-1.3748312-.9814239-2.22-.982h-18.23c-.8451688.0005761-1.6510229.35703947-2.22.982l-9.4 10.345c-.0278388.0398962-.0528981.0816616-.075.125-.044114.0589142-.0819842.1222546-.113.189-.0222424.0701972-.0366632.1426364-.043.216-.0149007.0467473-.0262661.0945487-.034.143v2c0 1.6568542 1.3431458 3 3 3h2v2c.002145.7113268.3832487 1.3675874 1 1.722v19.278c-1.6568542 0-3 1.3431458-3 3v1c-.089 0-.16.016-.241.022l-3.906-1.737-.308-1.241c1.5609077-.9137479 2.7036287-2.4005408 3.185-4.144 1.3307879-.3338521 2.2655033-1.527982 2.27-2.9v-2c-.0044967-1.372018-.9392121-2.5661479-2.27-2.9-.8465597-3.0165387-3.5969234-5.1012967-6.73-5.1012967s-5.88344034 2.084758-6.73 5.1012967c-1.3307879.3338521-2.26550332 1.527982-2.27 2.9v2c.00449668 1.372018.9392121 2.5661479 2.27 2.9.48137133 1.7434592 1.62409225 3.2302521 3.185 4.144l-.308 1.241-6.772 3.015c-1.44260075.6413653-2.37300711 2.0712529-2.375 3.65v8.05c0 1.6568542 1.34314575 3 3 3h20c1.6568542 0 3-1.3431458 3-3v-7h31c1.6529917-.0092882 2.9907118-1.3470083 3-3 0-1.6568542-1.3431458-3-3-3v-1c0-1.6568542-1.3431458-3-3-3v-19.278c.6167513-.3544126.997855-1.0106732 1-1.722v-2h2c1.6568542 0 3-1.3431458 3-3v-2c-.0060947-.0486507-.0157879-.0967826-.029-.144-.0063121-.0730401-.0207343-.1451507-.043-.215zm-30.783-9.314c.1895945-.20836874.4582846-.3271007.74-.327h18.23c.2815212.00043699.5498179.11951861.739.328l7.885 8.672h-35.478zm5.855 14.673v2c.002145.7113268.3832487 1.3675874 1 1.722v19.278h-6v-19.278c.6167513-.3544126.997855-1.0106732 1-1.722v-2zm12 0v2c.002145.7113268.3832487 1.3675874 1 1.722v19.278h-6v-19.278c.6167513-.3544126.997855-1.0106732 1-1.722v-2zm-9 4h2v19h-2zm3-2h-4v-2h4zm-12 0h-4v-2h4zm-3 2h2v19h-2zm-9.678 23.237 1.663.74-2.18 2.9-1.405-1.071zm3.678-10.237c0 .5522847-.4477153 1-1 1s-1-.4477153-1-1v-2c0-.5522847.4477153-1 1-1s1 .4477153 1 1zm-7-8c2.109781-.006993 3.9940589 1.318817 4.7 3.307-1.0356865.4979722-1.6958973 1.5438238-1.7 2.693v2c.0041027 1.1491762.6643135 2.1950278 1.7 2.693-.7177085 1.9774224-2.5963592 3.2941278-4.7 3.2941278s-3.98229151-1.3167054-4.7-3.2941278c1.03568649-.4979722 1.69589728-1.5438238 1.7-2.693v-2c-.00410272-1.1491762-.66431351-2.1950278-1.7-2.693.70594113-1.988183 2.590219-3.313993 4.7-3.307zm-7 6c0-.5522847.44771525-1 1-1s1 .4477153 1 1v2c0 .5522847-.44771525 1-1 1s-1-.4477153-1-1zm7 10c.5629632-.0001178 1.1239106-.0672569 1.671-.2l.244.985-1.915 2.548-1.915-2.553.244-.985c.5468867.1344276 1.1078369.2032455 1.671.205zm-3.322 2.237 1.927 2.569-1.405 1.075-2.18-2.9zm14.322 12.763c0 .5522847-.4477153 1-1 1h-2v-7c0-.5522847-.4477153-1-1-1s-1 .4477153-1 1v7h-12v-7c0-.5522847-.44771525-1-1-1s-1 .4477153-1 1v7h-2c-.55228475 0-1-.4477153-1-1v-8.05c.00051394-.7896185.46556421-1.5050202 1.187-1.826l2.954-1.314 2.631 3.508c.27287821.3646815.68068376.6046095 1.132.666.07887424.0107682.1583942.0161141.238.016.3728423.0001134.7352823-.1229264 1.031-.35l1.827-1.393 1.826 1.393c.2962744.2267486.6589138.3497368 1.032.35.079607.0001489.1591293-.0051972.238-.016.4518144-.0606592.8599988-.3011706 1.132-.667l2.631-3.507 2.954 1.314c.7214358.3209798 1.1864861 1.0363815 1.187 1.826zm34-10c.0003954.2693445-.110308.526929-.306.712-.1823963.1865985-.4330776.2906276-.694.288h-31.124c-.1885694-.7693979-.6013461-1.4654801-1.186-2h32.31c.5522847 0 1 .4477153 1 1zm-3-4v1h-32v-1c0-.5522847.4477153-1 1-1h30c.5522847 0 1 .4477153 1 1zm-5-3v-19h2v19zm3-21h-4v-2h4zm5-5c0 .5522847-.4477153 1-1 1h-36c-.5522847 0-1-.4477153-1-1v-1h38z"/><path id="Shape" d="m27.37 8.74c.4085039.37116314 1.0404761.34117579 1.412-.067l2.43-2.673h15.577l2.429 2.673c.3716876.40924297 1.004757.43968759 1.414.06799997.409243-.37168763.4396876-1.00475697.068-1.41399997l-2.431-2.672c-.379617-.4168493-.9171984-.65460475-1.481-.655h-15.576c-.5632735.00054364-1.1003661.23788051-1.48.654l-2.432 2.673c-.1781851.19661475-.2709229.45598626-.2577939.721005.013129.26501875.1310483.51395431.3277939.691995z"/></g></g></svg>